<?xml version="1.0" encoding="UTF-8" standalone="no"?>
<svg
   xmlns:dc="http://purl.org/dc/elements/1.1/"
   xmlns:cc="http://creativecommons.org/ns#"
   xmlns:rdf="http://www.w3.org/1999/02/22-rdf-syntax-ns#"
   xmlns:svg="http://www.w3.org/2000/svg"
   xmlns="http://www.w3.org/2000/svg"
   xmlns:sodipodi="http://sodipodi.sourceforge.net/DTD/sodipodi-0.dtd"
   xmlns:inkscape="http://www.inkscape.org/namespaces/inkscape"
   width="349.99997mm"
   height="350mm"
   viewBox="0 0 349.99997 350"
   version="1.1"
   id="svg8"
   inkscape:export-filename="/home/denys/github/website-build/static/img/avatar-favicon.png"
   inkscape:export-xdpi="36.285717"
   inkscape:export-ydpi="36.285717"
   inkscape:version="1.0.1 (3bc2e813f5, 2020-09-07)"
   sodipodi:docname="ebk.svg">
  <defs
     id="defs2" />
  <sodipodi:namedview
     id="base"
     pagecolor="#ffffff"
     bordercolor="#666666"
     borderopacity="1.0"
     inkscape:pageopacity="0.0"
     inkscape:pageshadow="2"
     inkscape:zoom="0.49497475"
     inkscape:cx="755.15101"
     inkscape:cy="722.69047"
     inkscape:document-units="mm"
     inkscape:current-layer="layer1"
     inkscape:document-rotation="0"
     showgrid="false"
     fit-margin-top="0"
     fit-margin-left="0"
     fit-margin-right="0"
     fit-margin-bottom="0"
     inkscape:window-width="1920"
     inkscape:window-height="1016"
     inkscape:window-x="0"
     inkscape:window-y="0"
     inkscape:window-maximized="1" />
  <metadata
     id="metadata5">
    <rdf:RDF>
      <cc:Work
         rdf:about="">
        <dc:format>image/svg+xml</dc:format>
        <dc:type
           rdf:resource="http://purl.org/dc/dcmitype/StillImage" />
        <dc:title></dc:title>
      </cc:Work>
    </rdf:RDF>
  </metadata>
  <g
     inkscape:label="Ebene 1"
     inkscape:groupmode="layer"
     id="layer1"
     transform="translate(34.153053,27.116508)">
    <ellipse
       style="fill:#ffffff;stroke:#000000;stroke-width:0.581253;stroke-linejoin:round;paint-order:markers stroke fill"
       id="path206"
       cx="140.84694"
       cy="147.8835"
       rx="174.70937"
       ry="174.70938" />
  </g>
  <g
     inkscape:groupmode="layer"
     id="layer2"
     inkscape:label="Ebene 2">
    <path
       style="fill:#000000;stroke-width:0.623282"
       d="m 126.9193,302.72727 c -9.84176,-1.76293 -18.36336,-4.5402 -26.48954,-8.63321 -3.586303,-1.80636 -6.744103,-2.82952 -11.247163,-3.64422 -28.83654,-5.21716 -51.95067,-21.74842 -64.849,-46.38009 -1.84348,-3.52048 -4.35029,-7.08096 -6.7838,-9.63521 -14.3203198,-15.03086 -22.3617498,-30.313 -25.6722998,-48.78839 -1.29259,-7.21364 -1.32604,-23.04798 -0.0633,-29.97434 0.77287,-4.23945 0.77459,-5.54809 0.0127,-9.66089 -1.44819,-7.81736 -1.26468,-23.35907 0.37458,-31.72222 3.35937,-17.13885 10.98971,-31.91811 22.9132398,-44.38081 3.95291,-4.13165 6.35773,-7.28177 7.89534,-10.34222 6.57369,-13.08431 19.03272,-27.15356 30.89534,-34.8883 10.75651,-7.01353 22.48885,-11.560941 35.51815,-13.766699 4.47786,-0.758065 7.37715,-1.6984786 11.317903,-3.6710606 6.93428,-3.47103 14.77619,-6.205159 22.6324,-7.89093499 8.44463,-1.81203601 25.37423,-1.97240801 33.63131,-0.318587 7.60456,1.523128 15.84019,4.30879799 23.39109,7.91194999 4.90109,2.33871 7.84892,3.3011376 12.46567,4.0698786 8.06553,1.343003 19.32233,5.137628 27.11563,9.140573 15.90949,8.17174 30.15828,22.61343 38.27181,38.7899 1.43546,2.86198 3.87254,6.14454 6.96932,9.38718 11.15035,11.67557 18.12744,23.48758 22.27364,37.70864 3.35454,11.50573 4.26967,26.37211 2.39892,38.9709 -0.7302,4.9177 -0.79477,7.03874 -0.2775,9.1176 0.37074,1.48999 0.83475,7.33695 1.0311,12.99325 0.27946,8.04966 0.12414,11.77385 -0.7152,17.14028 -2.7996,17.90129 -10.85832,34.11922 -23.64677,47.58843 -4.00104,4.21405 -6.42427,7.41299 -8.09667,10.68857 -6.00688,11.76524 -15.9555,23.59146 -26.53,31.53696 -10.23905,7.69346 -25.18866,13.99389 -38.4787,16.21665 -4.19961,0.70236 -7.40533,1.67857 -10.24792,3.12067 -6.43735,3.2658 -15.16846,6.45188 -22.34418,8.15362 -5.40576,1.28201 -8.51772,1.59313 -17.77234,1.7768 -7.58393,0.15053 -12.73375,-0.0485 -15.89372,-0.61467 z m 27.1314,-3.14258 c 7.10867,-1.15298 15.35867,-3.53242 20.38983,-5.88071 l 3.89963,-1.82017 -5.73344,-0.0537 c -7.22399,-0.0676 -18.03892,-1.48111 -25.8501,-3.37876 l -6.02893,-1.46466 -4.52266,1.14853 c -7.85853,1.99569 -15.56176,3.12464 -24.24453,3.55317 l -8.41432,0.41527 3.08898,1.41637 c 4.42272,2.02794 14.15937,4.94364 19.9725,5.98088 6.61658,1.18061 20.42059,1.22271 27.44304,0.0836 z m -32.74095,-11.83233 c 7.63085,-1.03016 13.30799,-2.1973 12.86119,-2.64411 -0.17258,-0.17267 -3.62778,-1.64733 -7.67823,-3.2772 -7.95012,-3.19911 -12.82083,-5.54361 -20.14176,-9.69521 -3.81039,-2.1608 -5.48124,-2.72495 -9.037603,-3.05143 -6.67245,-0.61258 -15.45467,-2.17809 -23.33442,-4.15963 -3.92098,-0.986 -7.21974,-1.70205 -7.33056,-1.59124 -0.50921,0.50922 16.30262,16.06384 20.89196,19.32967 8.40372,5.98015 8.46105,5.99873 18.474953,5.98481 4.8125,-0.007 11.69501,-0.40975 15.29447,-0.89566 z m 65.29584,-0.18281 c 5.37503,-2.91223 14.26979,-9.90607 20.98833,-16.50287 4.09439,-4.0202 7.32111,-7.43248 7.17051,-7.58286 -0.15053,-0.1503 -3.35909,0.51667 -7.12996,1.48235 -7.68758,1.96872 -16.43427,3.52717 -23.27785,4.1475 -3.85038,0.34902 -5.33864,0.85051 -9.34924,3.15032 -6.32274,3.62566 -14.77031,7.64948 -22.21401,10.58122 l -6.06073,2.38702 3.64974,0.82151 c 7.46728,1.68076 15.13683,2.47447 24.53945,2.53958 8.11427,0.0563 9.9946,-0.1086 11.68376,-1.02377 z M 83.534007,283.62323 c -6.6112,-5.00399 -11.68462,-9.74468 -17.64069,-16.48374 -5.46172,-6.17971 -5.59717,-6.28124 -11.98339,-8.98275 -8.03146,-3.39746 -16.3792,-7.95012 -21.89874,-11.94301 -2.32122,-1.67922 -4.35209,-3.0531 -4.51304,-3.0531 -0.16094,0 0.60037,1.47251 1.69182,3.27223 11.1393,18.36794 28.70479,32.15644 48.493,38.06585 10.26004,3.06396 10.92442,2.96455 5.85104,-0.87548 z m 117.560373,1.70187 c 18.32174,-5.07179 33.86412,-15.40125 45.15565,-30.01046 3.33362,-4.31308 7.81902,-11.07184 7.81902,-11.7819 0,-0.12792 -2.70683,1.57734 -6.0152,3.78936 -6.56837,4.39171 -13.1346,7.86658 -21.552,11.4055 -4.96288,2.08651 -5.78919,2.6939 -9.40943,6.91662 -4.92856,5.74872 -13.26521,13.70909 -18.19483,17.37357 -2.05084,1.5245 -3.99524,2.99701 -4.3209,3.27225 -1.01895,0.86114 1.00176,0.56196 6.51769,-0.96494 z m -53.48654,-3.9018 c 3.53335,-1.2379 10.4912,-4.23767 15.46188,-6.66618 l 9.03761,-4.41544 -13.08895,-0.61175 c -15.61893,-0.73002 -19.70271,-0.73925 -36.63363,-0.0829 l -12.94889,0.50198 3.288,1.87916 c 5.71421,3.26582 25.38509,11.41667 28.02786,11.61368 0.23752,0.0188 3.32277,-0.98064 6.85612,-2.21854 z m -20.1555,-14.8759 c -0.16391,-0.16396 -4.29463,-1.30245 -9.1794,-2.53011 -10.07331,-2.53164 -20.417063,-5.97869 -28.848993,-9.61389 -3.16511,-1.36457 -5.84464,-2.39112 -5.95451,-2.28125 -0.2832,0.2832 7.8447,6.43815 14.42822,10.92593 l 5.570583,3.79732 h 12.14105 c 6.67758,0 12.00695,-0.13404 11.84305,-0.298 z m 55.31311,-2.89873 c 5.34628,-3.49009 14.29768,-10.16991 14.87061,-11.09691 0.19762,-0.31976 -2.09977,0.48488 -5.10531,1.78811 -7.64495,3.31487 -19.56256,7.26689 -29.395,9.74769 -4.59156,1.1585 -8.49487,2.25294 -8.67402,2.43209 -0.17916,0.17927 5.0141,0.32575 11.54056,0.32575 h 11.86629 z m -91.994353,-1.71423 c -2.81945,-2.01541 -8.42677,-6.48793 -12.46069,-9.93889 -4.03391,-3.45096 -9.82281,-7.73704 -12.86423,-9.5246 -6.48939,-3.81407 -11.62289,-7.19813 -16.5931,-10.93832 -1.97113,-1.4833 -3.58388,-2.53654 -3.58388,-2.34053 0,1.22872 7.78996,15.22003 11.93073,21.4284 l 4.9433,7.41167 4.80776,1.57218 c 8.62513,2.82052 22.1172,5.80328 26.84961,5.93577 2.01267,0.0563 1.89112,-0.0883 -3.0295,-3.60568 z m 108.449053,1.70645 c 8.40123,-1.66817 18.70805,-4.72469 20.07133,-5.95221 2.73477,-2.46247 13.3149,-19.6102 16.08106,-26.06338 l 1.24742,-2.91009 -2.65037,1.98224 c -4.67105,3.49358 -13.08421,9.04562 -18.82161,12.42085 -3.0665,1.80396 -7.55413,5.10243 -9.97253,7.3299 -2.4184,2.2275 -7.76282,6.58689 -11.87649,9.68755 l -7.4794,5.63756 3.42806,-0.41646 c 1.88543,-0.22898 6.37307,-1.00123 9.97253,-1.71596 z m -47.3946,-0.24195 c 16.86105,-3.28764 35.28336,-9.47797 49.57609,-16.65875 6.30483,-3.16759 7.38492,-3.98875 13.43278,-10.21236 12.80576,-13.1779 24.77146,-29.91051 32.63397,-45.6347 2.29296,-4.58568 2.85329,-6.49779 3.77022,-12.8656 3.15518,-21.91139 1.70872,-55.93312 -2.79029,-65.63063 -9.31823,-20.08502 -33.67263,-51.22049 -44.1984,-56.50465 -16.86479,-8.46648 -35.5553,-14.6828 -55.51571,-18.46408 -6.4099,-1.21429 -7.69496,-1.27945 -12.15402,-0.61634 -18.11777,2.69432 -40.689883,9.89855 -57.474223,18.34375 -4.70862,2.36919 -6.40095,3.70579 -12.05777,9.52321 -11.87718,12.21439 -23.14559,27.66273 -31.55074,43.25426 -3.51033,6.51164 -3.93664,7.72102 -4.82478,13.68724 -2.89962,19.47859 -2.88693,39.71422 0.0366,58.26881 1.04672,6.64322 2.3373,9.72259 8.41123,20.06932 7.55147,12.86367 16.61721,24.94506 27.32317,36.412 6.75917,7.23961 9.17704,8.79033 22.64778,14.52525 13.067623,5.56331 24.667413,9.14543 39.697723,12.2591 10.50956,2.17713 12.98773,2.20339 23.0364,0.24405 z M 83.912757,150.59968 V 74.86749 l 56.874593,0.1591 56.87459,0.15911 v 14.9588 14.95879 l -41.60415,0.16024 -41.60416,0.16023 v 14.94996 14.94996 l 41.60416,0.16024 41.60415,0.16023 0.1669,15.11462 0.1669,15.11462 h -41.77105 -41.77106 v 15.27044 15.27044 h 41.75998 41.75997 v 14.9588 14.95879 H 140.94317 83.912757 Z m -27.80786,104.2474 c -0.25133,-0.42851 -1.49305,-2.32201 -2.75938,-4.20778 -3.33914,-4.97252 -8.89483,-15.17079 -11.53166,-21.16804 -1.88216,-4.28081 -2.9587,-5.80175 -6.11479,-8.639 -5.65772,-5.08616 -13.08068,-12.90134 -17.10994,-18.014 -3.23005,-4.09857 -3.56729,-4.36069 -3.75075,-2.91534 -0.29107,2.29306 1.56957,13.53979 3.32549,20.10107 2.69478,10.06951 5.06405,15.38421 7.97904,17.89842 4.6282,3.99188 15.51591,10.95528 22.49075,14.38433 7.04989,3.46597 8.24204,3.8745 7.47124,2.56034 z m 174.598733,-1.34651 c 6.95254,-3.21227 15.57314,-8.46437 21.81704,-13.29198 l 5.59975,-4.3296 2.26596,-6.17595 c 1.24629,-3.39676 2.87131,-8.65957 3.61115,-11.6951 1.36344,-5.59405 3.44521,-19.02358 3.01552,-19.45324 -0.12885,-0.12886 -2.32264,2.31383 -4.8751,5.42818 -2.55244,3.11435 -8.12956,9.03686 -12.39354,13.1611 -7.32013,7.08023 -7.89747,7.82009 -10.34734,13.25976 -3.14642,6.9863 -6.23245,12.62419 -10.66207,19.4785 -1.83534,2.83996 -3.33697,5.29414 -3.33697,5.45374 0,0.53635 0.68542,0.29923 5.3056,-1.83541 z M 59.199497,233.01908 c -5.75987,-6.05127 -17.27734,-21.81313 -22.32778,-30.55594 -0.94958,-1.64382 -1.83502,-2.88024 -1.96765,-2.74762 -0.35283,0.35284 3.11879,11.77936 5.36684,17.66444 1.73183,4.53369 2.31485,5.36818 5.49354,7.863 6.11813,4.80187 15.26031,11.09573 15.60968,10.74635 0.18389,-0.18398 -0.7947,-1.5205 -2.17463,-2.97023 z m 165.142003,0.68161 c 5.28116,-3.56109 12.97493,-9.43816 14.30923,-10.93036 0.60424,-0.67581 1.80876,-3.0258 2.67673,-5.22225 1.81595,-4.59548 5.94712,-18.16353 5.62766,-18.48299 -0.11802,-0.11802 -1.13084,1.41109 -2.25088,3.39781 -4.66484,8.27445 -13.32858,20.29598 -21.35707,29.63432 -1.98938,2.31395 -3.44827,4.20717 -3.24203,4.20717 0.20636,0 2.11263,-1.17166 4.23636,-2.6037 z M 16.215047,224.61785 c -2.02292,-6.5391 -3.79694,-15.9801 -4.65609,-24.77884 -0.70204,-7.18969 -0.75765,-7.36755 -3.8685598,-12.37158 -3.9054,-6.28203 -9.16949,-17.30442 -11.12486,-23.29417 -0.80885,-2.4777 -1.64257,-4.51116 -1.8527,-4.5188 -0.83501,-0.0303 -1.19974,12.01987 -0.55799,18.43515 1.18269,11.82277 3.99198,21.47004 9.21637,31.64956 3.54462,6.90656 12.4458698,19.45939 13.9383898,19.65635 0.21988,0.029 -0.27267,-2.12094 -1.09456,-4.77767 z m 256.902703,-6.14117 c 6.26884,-9.36015 10.73712,-19.86087 13.10113,-30.78838 1.15006,-5.31622 1.90163,-21.38786 1.21326,-25.94562 l -0.45868,-3.03704 -2.32443,6.54447 c -2.56125,7.21123 -7.28875,16.94091 -11.58803,23.84943 -2.40266,3.86083 -2.78657,4.94121 -2.78657,7.84189 0,6.5785 -3.05982,22.91149 -5.91469,31.57192 -0.67171,2.0377 5.10543,-4.58288 8.75801,-10.03667 z M 35.255877,212.87771 c -1.47788,-4.22107 -6.19204,-22.25188 -6.19204,-23.68338 0,-0.52398 -1.31502,-3.95209 -2.92225,-7.61801 -1.60724,-3.66593 -4.24407,-10.45177 -5.85962,-15.07964 -2.32404,-6.6574 -3.01734,-8.08897 -3.32038,-6.85612 -1.08383,4.40936 -2.30011,15.03092 -2.64077,23.06149 l -0.38339,9.03758 4.57298,5.92122 c 4.30313,5.57178 17.36228,19.57677 17.82406,19.11501 0.1166,-0.11661 -0.36877,-1.87075 -1.07859,-3.89815 z m 216.081303,-1.66047 c 5.90055,-6.12508 12.02157,-13.43359 14.83361,-17.71131 1.6895,-2.57011 1.70285,-2.67226 1.30375,-9.97253 -0.5779,-10.57074 -2.53897,-25.61785 -3.24653,-24.91029 -0.16349,0.1634 -1.36372,3.4743 -2.6674,7.35756 -1.30368,3.88326 -3.5602,9.72501 -5.0145,12.98167 -1.4543,3.25665 -3.30584,8.58572 -4.11458,11.84238 -2.50872,10.10235 -5.30265,20.12477 -6.47224,23.2173 -0.61585,1.62832 -0.9074,2.9606 -0.64792,2.9606 0.25951,0 2.9711,-2.59442 6.02581,-5.76538 z M 12.245567,169.30145 c 0.36983,-3.08525 1.2541,-8.51063 1.96504,-12.05639 l 1.29262,-6.44684 -1.29518,-6.64211 c -1.63278,-8.37347 -2.41133,-14.2633 -2.9686,-22.4578 -0.4272,-6.28203 -0.47021,-6.42606 -1.5080498,-5.05017 -2.04578,2.71217 -8.00224,15.36204 -10.13361005,21.52101 -3.82490995,11.05276 -3.90394995,11.7719 -2.04411995,18.59872 2.09943995,7.70633 5.70849,16.49628 9.83389,23.95073 l 3.2894198,5.94385 0.44808,-5.87573 c 0.24644,-3.23165 0.75067,-8.40002 1.12051,-11.48527 z m 264.563893,6.23283 c 3.54588,-7.30788 6.57372,-15.43072 8.39267,-22.5149 0.56014,-2.18159 0.41858,-3.40574 -0.93689,-8.10268 -3.36481,-11.65961 -12.26148,-30.66608 -13.46596,-28.76805 -0.27816,0.43836 -0.51157,2.90059 -0.51868,5.47164 -0.0141,4.90011 -1.89188,18.88256 -3.38623,25.20737 -0.78914,3.34002 -0.76077,4.22835 0.28856,9.03761 1.54669,7.08877 3.0915,19.0879 3.0915,24.01294 0,2.18265 0.18539,4.45145 0.41189,5.04179 0.38203,0.9956 0.47633,0.98801 1.30175,-0.10483 0.48945,-0.64801 2.65906,-4.82439 4.82139,-9.28086 z M 25.877327,164.88102 c -0.664,-7.58392 -0.41789,-27.86677 0.41905,-34.53477 0.52981,-4.22112 -0.48761,-2.12114 -3.74667,7.73317 -3.84754,11.63369 -3.90692,12.20901 -1.95894,18.98004 1.95527,6.79641 5.39983,16.45792 5.74468,16.11306 0.13546,-0.13545 -0.0707,-3.86662 -0.45812,-8.2915 z m 235.134403,-7.63668 1.86721,-6.44756 -1.609,-5.70646 c -1.92974,-6.84382 -5.40003,-16.75267 -5.74602,-16.40668 -0.13616,0.13618 0.0448,5.13281 0.40184,11.10364 0.44141,7.37884 0.44949,14.14364 0.0252,21.12004 -0.34333,5.64519 -0.6107,10.82494 -0.59419,11.51055 0.0403,1.67336 3.3406,-7.18206 5.65492,-15.17353 z M 25.742117,120.68536 c 1.8068,-4.28109 3.75749,-10.27792 4.56177,-14.02387 0.77283,-3.59946 2.512,-10.0079 3.86484,-14.24098 1.35283,-4.23308 2.33882,-7.81738 2.19109,-7.96511 -0.50756,-0.50755 -13.30763,13.33954 -17.8762,19.33843 l -4.57181,6.00315 0.38371,8.87225 c 0.33924,7.844 1.64995,19.1436 2.71093,23.37086 0.28188,1.1231 0.9891,-0.3513 2.97442,-6.20094 1.43254,-4.22092 4.0251,-11.04012 5.76125,-15.15379 z m 239.795933,16.53417 c 0.55361,-3.24721 1.31263,-10.63724 1.68669,-16.4223 l 0.68009,-10.51827 -2.05463,-2.89948 c -4.99367,-7.04707 -17.57027,-21.29473 -19.89569,-22.53926 -1.00375,-0.53719 -0.88441,0.17828 0.92695,5.55694 1.14346,3.39545 2.97802,10.0567 4.07678,14.8028 1.27239,5.49618 3.21279,11.50386 5.34425,16.54652 1.84059,4.35447 4.37621,11.02118 5.63475,14.81491 1.25854,3.79372 2.35708,6.8222 2.44125,6.72992 0.0841,-0.0923 0.60596,-2.82457 1.15956,-6.07178 z M -3.0614828,136.26744 c 2.41172995,-6.9567 6.36363,-15.21223 10.44275,-21.81491 l 3.4655798,-5.60955 0.71781,-7.4794 c 0.80286,-8.36567 2.40153,-16.84206 4.65371,-24.67473 l 1.50751,-5.24286 -2.78758,3.11642 c -3.59119,4.01481 -9.7154598,13.12333 -12.3372198,18.34891 -6.34762,12.65179 -9.60936,28.77214 -8.68546,42.92577 0.2307,3.53417 0.61628,6.19871 0.85686,5.92119 0.24058,-0.27752 1.21529,-2.74839 2.16604,-5.49084 z M 287.66173,131.28118 c 0.15171,-20.62769 -6.45586,-39.11485 -19.76092,-55.28788 -1.90637,-2.31729 -3.5398,-4.13957 -3.62983,-4.04952 -0.09,0.0901 0.52455,2.53123 1.36582,5.42483 2.24311,7.71548 3.95765,17.25092 4.40274,24.4858 0.3804,6.18339 0.47088,6.48996 3.16624,10.72827 3.95104,6.21284 9.55566,17.76824 11.72824,24.18086 2.28071,6.73182 2.64319,6.0033 2.72771,-5.48236 z M 20.464507,96.37732 c 2.2471,-2.74245 7.40124,-8.19779 11.45365,-12.12298 l 7.36801,-7.1367 5.14578,-10.31523 c 2.83018,-5.67336 6.70155,-12.67502 8.60303,-15.55921 1.9015,-2.8842 3.35802,-5.34324 3.23672,-5.46454 -0.64149,-0.64149 -17.91793,8.56637 -22.84488,12.1757 -8.8009,6.44727 -9.8693,7.58585 -11.75708,12.52945 -1.00222,2.62456 -2.40694,6.85974 -3.12159,9.41152 -1.46328,5.22485 -3.81983,18.39752 -3.81983,21.35211 0,2.25974 -0.34789,2.55511 5.73619,-4.87012 z M 266.26,95.50661 c -1.24238,-8.47155 -3.62226,-18.0592 -6.08109,-24.49821 -1.52113,-3.98346 -2.43487,-5.37199 -5.07332,-7.7096 -4.56429,-4.04388 -13.28466,-9.70627 -20.95338,-13.60563 -10.00968,-5.08968 -10.07175,-5.08605 -6.38718,0.37427 3.85813,5.71748 9.20383,15.4494 12.01972,21.88199 1.90956,4.36218 2.78565,5.47547 8.45523,10.74436 3.47871,3.23286 9.06993,9.10166 12.42491,13.04176 3.35502,3.94011 6.21368,7.05017 6.35259,6.91125 0.13899,-0.13892 -0.20188,-3.35201 -0.75748,-7.14019 z M 49.311677,80.4836 c 2.72683,-3.59946 6.72951,-8.57794 8.89485,-11.06328 2.16534,-2.48534 3.75315,-4.5188 3.52846,-4.5188 -1.09277,0 -18.5744,12.9532 -19.7242,14.61485 -0.59237,0.85609 -7.3374,21.29288 -7.3374,22.23163 0,0.39609 2.17809,-2.75386 4.8402,-6.99988 2.66211,-4.24603 7.07125,-10.66506 9.79809,-14.26452 z M 245.96023,98.06448 c -0.64532,-2.32871 -2.2984,-7.44742 -3.67348,-11.37492 -2.07677,-5.9316 -2.90047,-7.495 -4.86401,-9.23192 -2.31411,-2.04705 -12.37215,-9.362 -16.07604,-11.69167 l -1.86985,-1.1761 2.07515,2.49314 c 10.54496,12.66904 15.05635,18.77338 21.30429,28.82684 2.18371,3.51376 4.03942,6.38866 4.1238,6.38866 0.0843,0 -0.37456,-1.90531 -1.01986,-4.23403 z M 54.496627,65.86818 c 2.63804,-1.80456 7.74146,-5.03587 11.34091,-7.1807 3.59947,-2.14483 7.94687,-5.21582 9.6609,-6.82441 3.91343,-3.67271 14.85146,-12.39363 17.93349,-14.29843 1.27776,-0.7897 2.32321,-1.57037 2.32321,-1.73482 0,-0.90957 -19.48663,2.9757 -27.00707,5.38471 -3.40111,1.08947 -6.33025,2.43879 -7.09112,3.26654 -3.26071,3.54735 -16.38775,25.62381 -16.38775,27.5602 0,0.26818 0.99697,-0.27283 2.21549,-1.20224 1.21853,-0.92941 4.3739,-3.1663 7.01194,-4.97085 z M 232.90441,65.05734 c -2.0833,-4.02797 -5.95679,-10.54107 -8.6077,-14.47355 -5.43671,-8.06502 -5.16349,-7.88744 -16.79182,-10.9141 -6.12902,-1.59527 -20.72215,-4.29851 -21.1102,-3.91045 -0.11416,0.11416 2.67453,2.35535 6.19707,4.98044 3.52254,2.62509 8.90914,6.97524 11.97023,9.667 3.06109,2.69176 8.93207,6.92873 13.04663,9.41549 4.11457,2.48676 10.00459,6.32723 13.08895,8.53438 3.08436,2.20715 5.69495,4.01555 5.80131,4.01868 0.10624,0.003 -1.51115,-3.28993 -3.59447,-7.31789 z M 42.183777,48.9053 c 3.61651,-2.00896 9.28516,-4.74775 12.597,-6.0862 5.52993,-2.23487 6.27272,-2.74309 9.09828,-6.22511 4.17397,-5.14371 14.4333,-14.98812 19.53637,-18.74626 2.29752,-1.691996 4.08298,-3.170675 3.96771,-3.285954 -0.11529,-0.115289 -2.51532,0.379105 -5.33342,1.098628 -15.86985,4.051936 -29.94529,12.321426 -41.32366,24.278136 -4.74841,4.98977 -12.90879,16.13124 -12.90879,17.62453 0,0.29993 1.75298,-0.70353 3.89552,-2.22989 2.14254,-1.52637 6.85448,-4.41891 10.47099,-6.42788 z M 252.4875,55.08481 c -7.44107,-12.9587 -21.23577,-25.85237 -35.15421,-32.85805 -6.44536,-3.2442 -22.10054,-8.394535 -22.94611,-7.548955 -0.11654,0.116537 1.2738,1.296906 3.08964,2.623045 5.94868,4.34442 13.01113,10.91327 18.3968,17.11099 4.51018,5.19026 5.81157,6.29511 8.81052,7.47991 6.36448,2.51443 19.00942,9.17236 24.08703,12.68251 2.74243,1.89587 5.08302,3.45245 5.2013,3.45908 0.11826,0.007 -0.54997,-1.32021 -1.48497,-2.94853 z M 92.643677,45.68013 c 8.953663,-3.58456 19.983983,-7.05486 28.977713,-9.1168 l 6.23283,-1.42896 -2.99626,-0.46298 c -1.64795,-0.25464 -7.18046,-0.34412 -12.29449,-0.19885 l -9.29822,0.26415 -6.092373,4.15379 c -6.61204,4.50811 -14.76692,10.81641 -13.26012,10.25753 0.51421,-0.19072 4.44312,-1.75127 8.73092,-3.46788 z m 105.329903,3.40554 c 0,-0.41352 -9.50475,-7.55725 -14.61152,-10.98195 l -4.95063,-3.31999 -9.15261,-0.29378 c -5.03393,-0.16158 -10.50962,-0.0903 -12.1682,0.15845 -3.00978,0.45134 -2.9976,0.45674 6.3122,2.79744 10.73384,2.69875 20.65996,5.98627 28.30287,9.3739 5.34025,2.36701 6.26789,2.70236 6.26789,2.26594 z M 71.412087,37.11807 c 5.25632,-1.56096 17.22216,-3.84695 24.34305,-4.65056 5.626163,-0.63493 7.043833,-1.03913 10.103213,-2.88063 5.01574,-3.01906 19.32835,-9.80188 24.33318,-11.53162 2.31394,-0.799725 4.20717,-1.6251 4.20717,-1.834165 0,-0.209069 -3.71633,-1.040159 -8.25851,-1.846876 -6.45828,-1.147029 -10.56822,-1.472217 -18.85431,-1.491802 -12.141383,-0.02869 -11.485403,-0.247659 -21.496903,7.175413 -7.76111,5.75451 -20.18168,18.04251 -18.23716,18.04251 0.30393,0 2.04106,-0.44202 3.86027,-0.98227 z M 211.87754,34.60096 c -4.27061,-4.9873 -13.22086,-12.72368 -20.23175,-17.487852 l -6.01615,-4.088208 -6.76116,-0.311042 c -7.36131,-0.338648 -17.20987,0.473443 -25.86649,2.132898 -5.67919,1.088688 -6.63818,1.644754 -3.98498,2.310663 3.45646,0.867511 16.7045,6.855001 23.10032,10.440241 l 6.84611,3.83766 9.97253,1.44807 c 5.4849,0.79644 13.05779,2.25584 16.82865,3.24311 9.69413,2.53807 9.61048,2.55895 6.11292,-1.52554 z m -58.77337,-2.73034 c 4.96685,-0.35917 11.24783,-0.71716 13.95774,-0.79554 l 4.92711,-0.14249 -6.65713,-3.30482 c -7.32961,-3.63866 -17.48277,-7.80062 -21.93398,-8.99114 -2.69289,-0.72023 -3.27382,-0.6269 -9.69429,1.5575 -3.75636,1.27801 -10.67609,4.19917 -15.37718,6.49147 l -8.54743,4.16781 10.59582,0.48777 c 5.82769,0.26827 12.55915,0.75323 14.95879,1.07768 2.39964,0.32445 5.3478,0.48076 6.55145,0.34736 1.20366,-0.13341 6.25225,-0.53642 11.2191,-0.89559 z m -8.61313,-18.356063 c 4.95311,-1.503131 17.88016,-3.456592 26.06219,-3.9383706 l 7.78693,-0.458515 -5.92119,-2.268658 c -21.33918,-8.175941 -42.59209,-8.094224 -63.78324,0.245247 l -5.08955,2.002921 7.47507,0.448597 c 8.61331,0.5169046 18.04009,1.9083016 24.31237,3.5885206 5.43379,1.455604 5.59225,1.462184 9.15742,0.380258 z"
       id="path204"
       transform="translate(34.153049,27.116513)" />
  </g>
</svg>
